# xmcd CD database file
#
# Track frame offsets:
#	150
#	30368
#	44733
#	56279
#	84650
#	102510
#	120202
#	148373
#	172959
#	205791
#	234743
#
# Disc length: 3462 seconds
#
# Revision: 0
# Processed by: cddbd v1.5.2PL0 Copyright (c) Steve Scherf et al.
# Submitted via: CDex 1.50
#
DISCID=920d840b
DTITLE=Ben Webster - The Frog 1956-1962
DYEAR=1900
DGENRE=Jazz
TTITLE0=Bye Bye Blackbird
TTITLE1=In The Wee Small Hours Of The Morning
TTITLE2=How Deep Is The Ocean
TTITLE3=The Touch Of Your Lips
TTITLE4=Wwhenn Your Lover Has Gone
TTITLE5=Sunday
TTITLE6=My One And Only Love
TTITLE7=Night And Day
TTITLE8=My Ideal
TTITLE9=Where Or When
TTITLE10=HHow Long Has This Been Going On
EXTD=
EXTT0=
EXTT1=
EXTT2=
EXTT3=
EXTT4=
EXTT5=
EXTT6=
EXTT7=
EXTT8=
EXTT9=
EXTT10=
PLAYORDER=
